<?xml version="1.0" encoding="UTF-8" standalone="no"?>
<svg
   xmlns:dc="http://purl.org/dc/elements/1.1/"
   xmlns:cc="http://creativecommons.org/ns#"
   xmlns:rdf="http://www.w3.org/1999/02/22-rdf-syntax-ns#"
   xmlns:svg="http://www.w3.org/2000/svg"
   xmlns="http://www.w3.org/2000/svg"
   xmlns:sodipodi="http://sodipodi.sourceforge.net/DTD/sodipodi-0.dtd"
   xmlns:inkscape="http://www.inkscape.org/namespaces/inkscape"
   id="Layer_1"
   viewBox="0 0 48 48"
   version="1.1"
   sodipodi:docname="Discord.svg"
   width="48"
   height="48"
   inkscape:version="0.92.4 (5da689c313, 2019-01-14)">
  <metadata
     id="metadata13">
    <rdf:RDF>
      <cc:Work
         rdf:about="">
        <dc:format>image/svg+xml</dc:format>
        <dc:type
           rdf:resource="http://purl.org/dc/dcmitype/StillImage" />
        <dc:title></dc:title>
      </cc:Work>
    </rdf:RDF>
  </metadata>
  <defs
     id="defs11" />
  <sodipodi:namedview
     pagecolor="#ffffff"
     bordercolor="#666666"
     borderopacity="1"
     objecttolerance="10"
     gridtolerance="10"
     guidetolerance="10"
     inkscape:pageopacity="0"
     inkscape:pageshadow="2"
     inkscape:window-width="1920"
     inkscape:window-height="1017"
     id="namedview9"
     showgrid="false"
     inkscape:zoom="5.5625733"
     inkscape:cx="-25.069165"
     inkscape:cy="25.823172"
     inkscape:window-x="-8"
     inkscape:window-y="-8"
     inkscape:window-maximized="1"
     inkscape:current-layer="Layer_1" />
  <style
     id="style2">.st0{fill:#7289DA;}</style>
  <path
     class="st0"
     d="m 18.994298,21.336 c -1.563435,0 -2.797725,1.2 -2.797725,2.664 0,1.464 1.261725,2.664 2.797725,2.664 1.563419,0 2.79771,-1.2 2.79771,-2.664 0.02745,-1.464 -1.234291,-2.664 -2.79771,-2.664 z m 10.011419,0 c -1.56342,0 -2.79771,1.2 -2.79771,2.664 0,1.464 1.26171,2.664 2.79771,2.664 1.563436,0 2.79771,-1.2 2.79771,-2.664 0,-1.464 -1.234274,-2.664 -2.79771,-2.664 z"
     id="path4"
     inkscape:connector-curvature="0"
     style="fill:#7289da;stroke-width:0.25657079" />
  <path
     class="st0"
     d="M 42.377145,0 H 5.622855 C 2.523435,0 0,2.208 0,4.944 v 32.448 c 0,2.736 2.523435,4.944 5.622855,4.944 h 31.104 L 35.273145,37.896 38.784,40.752 42.102855,43.44 48,48 V 4.944 C 48,2.208 45.476565,0 42.377145,0 Z M 31.78971,31.344 c 0,0 -0.98742,-1.032 -1.810275,-1.944 3.59313,-0.888 4.964565,-2.856 4.964565,-2.856 -1.124565,0.648 -2.19429,1.104 -3.15429,1.416 -1.37142,0.504 -2.688,0.84 -3.977145,1.032 -2.63313,0.432 -5.046855,0.312 -7.104,-0.024 -1.56342,-0.264 -2.90742,-0.648 -4.032,-1.032 C 16.04571,27.72 15.36,27.456 14.67429,27.12 14.59194,27.072 14.50971,27.048 14.427435,27 c -0.0549,-0.024 -0.08235,-0.048 -0.10965,-0.072 -0.49371,-0.24 -0.768,-0.408 -0.768,-0.408 0,0 1.31658,1.92 4.8,2.832 -0.822855,0.912 -1.83771,1.992 -1.83771,1.992 -6.06171,-0.168 -8.36571,-3.648 -8.36571,-3.648 0,-7.728 3.94971,-13.992 3.94971,-13.992 3.94971,-2.592 7.707435,-2.52 7.707435,-2.52 l 0.274275,0.288 c -4.937145,1.248 -7.21371,3.144 -7.21371,3.144 0,0 0.603435,-0.288 1.61829,-0.696 2.934855,-1.128 5.266275,-1.44 6.226275,-1.512 0.16458,-0.024 0.301725,-0.048 0.46629,-0.048 1.673145,-0.192 3.56571,-0.24 5.54058,-0.048 2.60571,0.264 5.40342,0.936 8.256,2.304 0,0 -2.16687,-1.8 -6.829725,-3.048 l 0.384,-0.384 c 0,0 3.757725,-0.072 7.707435,2.52 0,0 3.94971,6.264 3.94971,13.992 0,0 -2.33142,3.48 -8.393145,3.648 z"
     id="path6"
     inkscape:connector-curvature="0"
     style="fill:#7289da;stroke-width:0.25657079" />
</svg>
