<?xml version="1.0" encoding="UTF-8" standalone="no"?>
<!-- Created with Inkscape (http://www.inkscape.org/) -->

<svg
   xmlns:dc="http://purl.org/dc/elements/1.1/"
   xmlns:cc="http://creativecommons.org/ns#"
   xmlns:rdf="http://www.w3.org/1999/02/22-rdf-syntax-ns#"
   xmlns:svg="http://www.w3.org/2000/svg"
   xmlns="http://www.w3.org/2000/svg"
   xmlns:xlink="http://www.w3.org/1999/xlink"
   xmlns:sodipodi="http://sodipodi.sourceforge.net/DTD/sodipodi-0.dtd"
   xmlns:inkscape="http://www.inkscape.org/namespaces/inkscape"
   width="210mm"
   height="297mm"
   viewBox="0 0 210 297"
   version="1.1"
   id="svg4581"
   sodipodi:docname="logo.svg"
   inkscape:version="0.92.4 (5da689c313, 2019-01-14)">
  <defs
     id="defs4575">
    <linearGradient
       inkscape:collect="always"
       id="linearGradient5521">
      <stop
         style="stop-color:#c4bbbb;stop-opacity:1;"
         offset="0"
         id="stop5517" />
      <stop
         style="stop-color:#c4bbbb;stop-opacity:0;"
         offset="1"
         id="stop5519" />
    </linearGradient>
    <filter
       inkscape:label="Cross Blur"
       inkscape:menu="Blurs"
       inkscape:menu-tooltip="Overlays two copies with different blur amounts and modifiable blend and composite"
       style="color-interpolation-filters:sRGB;"
       id="filter5465">
      <feGaussianBlur
         stdDeviation="5"
         result="fbSourceGraphic"
         id="feGaussianBlur5457" />
      <feGaussianBlur
         stdDeviation="0.01"
         in="SourceGraphic"
         result="result1"
         id="feGaussianBlur5459" />
      <feComposite
         in2="result1"
         operator="arithmetic"
         in="fbSourceGraphic"
         k2="0.5"
         k3="0.5"
         result="result2"
         id="feComposite5461" />
      <feBlend
         in2="fbSourceGraphic"
         mode="normal"
         result="fbSourceGraphic"
         id="feBlend5463" />
      <feColorMatrix
         result="fbSourceGraphicAlpha"
         in="fbSourceGraphic"
         values="0 0 0 -1 0 0 0 0 -1 0 0 0 0 -1 0 0 0 0 1 0"
         id="feColorMatrix5467" />
      <feColorMatrix
         id="feColorMatrix5469"
         in="fbSourceGraphic"
         values="1 0 0 0 0 0 1 0 0 0 0 0 1 0 0 -0.2125 -0.7154 -0.0721 1 0 "
         result="colormatrix" />
      <feComposite
         in2="colormatrix"
         id="feComposite5471"
         in="fbSourceGraphic"
         operator="arithmetic"
         k2="1"
         k3="0"
         k4="0"
         result="composite" />
      <feGaussianBlur
         id="feGaussianBlur5473"
         stdDeviation="5 0.01"
         result="blur1" />
      <feGaussianBlur
         id="feGaussianBlur5475"
         in="composite"
         stdDeviation="0.01 5"
         result="blur2" />
      <feBlend
         in2="blur1"
         id="feBlend5477"
         in="blur2"
         mode="darken"
         result="blend" />
    </filter>
    <radialGradient
       inkscape:collect="always"
       xlink:href="#linearGradient5521"
       id="radialGradient5523"
       cx="309.83907"
       cy="72.717982"
       fx="309.83907"
       fy="72.717982"
       r="92.895088"
       gradientTransform="matrix(1,0,0,0.48052488,0,37.775182)"
       gradientUnits="userSpaceOnUse" />
  </defs>
  <sodipodi:namedview
     id="base"
     pagecolor="#ffffff"
     bordercolor="#666666"
     borderopacity="1.0"
     inkscape:pageopacity="0.0"
     inkscape:pageshadow="2"
     inkscape:zoom="0.98994949"
     inkscape:cx="532.52858"
     inkscape:cy="573.40789"
     inkscape:document-units="mm"
     inkscape:current-layer="layer7"
     showgrid="false"
     inkscape:window-width="1920"
     inkscape:window-height="1017"
     inkscape:window-x="-8"
     inkscape:window-y="-8"
     inkscape:window-maximized="1">
    <inkscape:grid
       type="xygrid"
       id="grid5162" />
  </sodipodi:namedview>
  <metadata
     id="metadata4578">
    <rdf:RDF>
      <cc:Work
         rdf:about="">
        <dc:format>image/svg+xml</dc:format>
        <dc:type
           rdf:resource="http://purl.org/dc/dcmitype/StillImage" />
        <dc:title></dc:title>
      </cc:Work>
    </rdf:RDF>
  </metadata>
  <g
     inkscape:groupmode="layer"
     id="layer6"
     inkscape:label="background">
    <g
       id="layer1-4"
       inkscape:label="Layer 1"
       transform="matrix(1.7997751,0,0,1.8008173,-70.795171,-99.659843)">
      <circle
         r="41.539581"
         cy="138.77916"
         cx="98.160416"
         id="path4548"
         style="opacity:1;fill:#000000;fill-opacity:1;stroke:#000000;stroke-width:0.26458332;stroke-opacity:1" />
      <ellipse
         ry="38.928066"
         rx="39.302242"
         cy="138.91145"
         cx="98.160416"
         id="path4548-4"
         style="opacity:1;fill:#b4856e;fill-opacity:0.96482412;stroke:none;stroke-width:0.24913824;stroke-opacity:1" />
    </g>
  </g>
  <g
     inkscape:groupmode="layer"
     id="layer3"
     inkscape:label="handle">
    <path
       style="opacity:1;fill:#c41e14;fill-opacity:1;stroke:#000000;stroke-width:0.23878944;stroke-opacity:1"
       d="m 40.26917,117.44918 a 27.672492,31.411407 0 0 0 -27.672436,31.411 27.672492,31.411407 0 0 0 27.672436,31.41151 27.672492,31.411407 0 0 0 27.672427,-31.41151 27.672492,31.411407 0 0 0 -27.672427,-31.411 z m -0.58167,4.92579 a 20.311667,25.483997 0 0 1 2.02757,0.12713 20.311667,25.483997 0 0 1 2.00772,0.38085 20.311667,25.483997 0 0 1 1.967084,0.63045 20.311667,25.483997 0 0 1 1.907075,0.87334 20.311667,25.483997 0 0 1 1.828163,1.10794 20.311667,25.483997 0 0 1 1.731298,1.33118 20.311667,25.483997 0 0 1 1.616003,1.54203 20.311667,25.483997 0 0 1 1.485592,1.73632 20.311667,25.483997 0 0 1 1.340056,1.91359 20.311667,25.483997 0 0 1 1.180817,2.07222 20.311667,25.483997 0 0 1 1.010239,2.20968 20.311667,25.483997 0 0 1 0.82974,2.32493 20.311667,25.483997 0 0 1 0.639785,2.41742 20.311667,25.483997 0 0 1 0.444638,2.48564 20.311667,25.483997 0 0 1 0.244763,2.52852 20.311667,25.483997 0 0 1 0.05103,1.80299 20.311667,25.483997 0 0 1 -0.101594,2.54404 20.311667,25.483997 0 0 1 -0.303354,2.5187 20.311667,25.483997 0 0 1 -0.502284,2.46807 20.311667,25.483997 0 0 1 -0.696018,2.39313 20.311667,25.483997 0 0 1 -0.883132,2.2934 20.311667,25.483997 0 0 1 -1.061271,2.17196 20.311667,25.483997 0 0 1 -1.229013,2.02779 20.311667,25.483997 0 0 1 -1.384001,1.86396 20.311667,25.483997 0 0 1 -1.52528,1.68104 20.311667,25.483997 0 0 1 -1.651446,1.48156 20.311667,25.483997 0 0 1 -1.761064,1.26762 20.311667,25.483997 0 0 1 -1.853208,1.04077 20.311667,25.483997 0 0 1 -1.926917,0.80305 20.311667,25.483997 0 0 1 -1.980791,0.55811 20.311667,25.483997 0 0 1 -2.015756,0.30695 20.311667,25.483997 0 0 1 -1.436446,0.0636 20.311667,25.483997 0 0 1 -2.028037,-0.12713 20.311667,25.483997 0 0 1 -2.007253,-0.38085 20.311667,25.483997 0 0 1 -1.967551,-0.62994 20.311667,25.483997 0 0 1 -1.907083,-0.87385 20.311667,25.483997 0 0 1 -1.828164,-1.10794 20.311667,25.483997 0 0 1 -1.730819,-1.33119 20.311667,25.483997 0 0 1 -1.616486,-1.54202 20.311667,25.483997 0 0 1 -1.485584,-1.73633 20.311667,25.483997 0 0 1 -1.340062,-1.91358 20.311667,25.483997 0 0 1 -1.180814,-2.07222 20.311667,25.483997 0 0 1 -1.010237,-2.20969 20.311667,25.483997 0 0 1 -0.829265,-2.32492 20.311667,25.483997 0 0 1 -0.640263,-2.41742 20.311667,25.483997 0 0 1 -0.444633,-2.48563 20.311667,25.483997 0 0 1 -0.244769,-2.52853 20.311667,25.483997 0 0 1 -0.05057,-1.80248 20.311667,25.483997 0 0 1 0.101112,-2.54454 20.311667,25.483997 0 0 1 0.303362,-2.51871 20.311667,25.483997 0 0 1 0.502284,-2.46807 20.311667,25.483997 0 0 1 0.696488,-2.39262 20.311667,25.483997 0 0 1 0.883131,-2.29391 20.311667,25.483997 0 0 1 1.061277,-2.17197 20.311667,25.483997 0 0 1 1.228536,-2.02778 20.311667,25.483997 0 0 1 1.384006,-1.86397 20.311667,25.483997 0 0 1 1.525277,-1.68103 20.311667,25.483997 0 0 1 1.651443,-1.48157 20.311667,25.483997 0 0 1 1.761066,-1.26762 20.311667,25.483997 0 0 1 1.853209,-1.04076 20.311667,25.483997 0 0 1 1.926925,-0.80305 20.311667,25.483997 0 0 1 1.980782,-0.55759 20.311667,25.483997 0 0 1 2.015757,-0.30696 20.311667,25.483997 0 0 1 1.436921,-0.0641 z"
       id="path5176"
       inkscape:connector-curvature="0" />
  </g>
  <g
     inkscape:groupmode="layer"
     id="layer5"
     inkscape:label="space" />
  <g
     inkscape:label="CUP"
     inkscape:groupmode="layer"
     id="layer1">
    <path
       style="fill:#c41e14;fill-opacity:1;stroke:#000000;stroke-width:0.24242952px;stroke-linecap:butt;stroke-linejoin:miter;stroke-opacity:1"
       d="m 31.442187,112.8704 c 48.469468,21.31126 94.309553,23.82922 153.766153,0.24415 0,53.78407 -27.86601,90.09173 -76.63744,90.09173 -49.86413,0 -77.128713,-36.92397 -77.128713,-90.33588 z"
       id="path4585"
       inkscape:connector-curvature="0"
       sodipodi:nodetypes="cccc" />
    <ellipse
       style="opacity:1;fill:#dedbe6;fill-opacity:0.98994978;stroke:#000000;stroke-width:0.24772969;stroke-opacity:1"
       id="path5133"
       cx="108.44866"
       cy="113.98267"
       rx="77.252289"
       ry="15.919404" />
    <circle
       style="opacity:1;fill:#c41e14;fill-opacity:1;stroke:#000000;stroke-width:0.26458332;stroke-opacity:1"
       id="path5176-8"
       cx="17.736391"
       cy="147.7682"
       r="0" />
  </g>
  <g
     inkscape:groupmode="layer"
     id="layer4"
     inkscape:label="coffee">
    <ellipse
       ry="12.093809"
       rx="72.291176"
       cy="115.34016"
       cx="107.93017"
       id="ellipse5138"
       style="opacity:1;fill:#51382a;fill-opacity:1;stroke:none;stroke-width:0.20887342;stroke-opacity:1" />
  </g>
  <g
     inkscape:groupmode="layer"
     id="layer7"
     inkscape:label="steam">
    <flowRoot
       xml:space="preserve"
       id="flowRoot5327"
       style="fill:black;fill-opacity:1;stroke:none;font-family:sans-serif;font-style:normal;font-weight:normal;font-size:40px;line-height:1.25;letter-spacing:0px;word-spacing:0px"><flowRegion
         id="flowRegion5329"><rect
           id="rect5331"
           width="250"
           height="110"
           x="300"
           y="582.51971" /></flowRegion><flowPara
         id="flowPara5333"></flowPara></flowRoot>    <text
       xml:space="preserve"
       style="font-style:normal;font-weight:normal;font-size:10.58333302px;line-height:1.25;font-family:sans-serif;letter-spacing:0px;word-spacing:0px;fill:#000000;fill-opacity:1;stroke:none;stroke-width:0.26458332"
       x="103.1875"
       y="167.35417"
       id="text5337"><tspan
         sodipodi:role="line"
         id="tspan5335"
         x="103.1875"
         y="176.71794"
         style="stroke-width:0.26458332" /></text>
    <flowRoot
       xml:space="preserve"
       id="flowRoot5339"
       style="font-style:normal;font-variant:normal;font-weight:normal;font-stretch:normal;font-size:40px;line-height:1.25;font-family:'Ink Free';-inkscape-font-specification:'Ink Free';letter-spacing:0px;word-spacing:0px;fill:#000000;fill-opacity:1;stroke:#dca269;stroke-opacity:1;"
       transform="matrix(0.99175287,0.75145374,-0.75145374,0.99175287,281.71875,-580.6529)"><flowRegion
         id="flowRegion5341"
         style="font-style:normal;font-variant:normal;font-weight:normal;font-stretch:normal;font-family:'Ink Free';-inkscape-font-specification:'Ink Free';stroke:#dca269;stroke-opacity:1;fill:#000000;fill-opacity:1;"><rect
           id="rect5343"
           width="200"
           height="80"
           x="220"
           y="542.51971"
           style="font-style:normal;font-variant:normal;font-weight:normal;font-stretch:normal;font-family:'Ink Free';-inkscape-font-specification:'Ink Free';stroke:#dca269;stroke-opacity:1;fill:#000000;fill-opacity:1;" /></flowRegion><flowPara
         id="flowPara5345">K</flowPara></flowRoot>    <flowRoot
       xml:space="preserve"
       id="flowRoot5339-5"
       style="font-style:normal;font-variant:normal;font-weight:normal;font-stretch:normal;font-size:40px;line-height:1.25;font-family:'Ink Free';-inkscape-font-specification:'Ink Free';letter-spacing:0px;word-spacing:0px;fill:#000000;fill-opacity:1;stroke:#dca269;stroke-opacity:1;"
       transform="matrix(1.0879992,-0.78014747,0.78014747,1.0879992,-566.91492,-267.63723)"><flowRegion
         id="flowRegion5341-6"
         style="font-style:normal;font-variant:normal;font-weight:normal;font-stretch:normal;font-family:'Ink Free';-inkscape-font-specification:'Ink Free';stroke:#dca269;stroke-opacity:1;"><rect
           id="rect5343-0"
           width="200"
           height="80"
           x="220"
           y="542.51971"
           style="font-style:normal;font-variant:normal;font-weight:normal;font-stretch:normal;font-family:'Ink Free';-inkscape-font-specification:'Ink Free';stroke:#dca269;stroke-opacity:1;" /></flowRegion><flowPara
         id="flowPara5345-5">K</flowPara></flowRoot>    <path
       style="fill:url(#radialGradient5523);fill-opacity:1;stroke:none;stroke-width:0.26458332px;stroke-linecap:butt;stroke-linejoin:miter;stroke-opacity:1;filter:url(#filter5465)"
       d="m 263.52775,103.22959 c 0,0 10.15624,3.4745 17.90705,1.33635 7.75084,-2.13816 14.96711,-0.80181 23.51974,1.60362 8.5526,2.40542 16.57069,3.4745 22.18335,3.74177 5.61266,0.26727 10.95807,-9.6217 16.30344,-11.492591 5.34541,-1.870885 13.89804,-0.267269 25.12335,-2.138156 11.22532,-1.870885 20.31249,-6.1472 18.44159,-10.95805 -1.87089,-4.810852 -9.08716,-8.285355 -14.9671,-12.561667 -5.87992,-4.276313 -14.6998,-5.879931 -4.27631,-12.561668 10.42353,-6.681737 9.88897,-30.735995 -3.4745,-23.252448 -13.36347,7.483546 -13.89801,2.939965 -16.30344,14.165283 -2.40544,11.225321 -3.47451,18.17433 -5.34538,21.916101 -1.8709,3.741775 -2.40543,8.018087 -6.94902,9.354434 -4.54358,1.336347 -9.88896,2.138156 -13.898,-1.870887 -4.00905,-4.009041 -5.87994,-7.750815 -12.82896,-9.621703 -6.94899,-1.870887 -16.5707,-1.870887 -24.05425,0.534541 -7.48355,2.405425 -4.54358,2.138156 -14.43255,6.414468 -9.88897,4.276312 -16.30344,5.612659 -22.18337,9.354434 -5.87993,3.741771 -8.8199,3.741771 -11.49259,9.354433 -2.6727,5.612656 -7.75082,8.018086 -1.06908,10.423516 6.68174,2.40542 7.75082,3.74177 12.56167,2.13815 4.81085,-1.60362 6.1472,-2.13815 8.01808,-3.20723 1.87089,-1.06908 7.21628,-2.6727 7.21628,-2.6727 z"
       id="path5373"
       inkscape:connector-curvature="0"
       transform="matrix(0.8616344,-0.13068838,0.13068838,0.8616344,-158.30814,61.960468)" />
  </g>
</svg>
