<?xml version="1.0" encoding="UTF-8" standalone="no"?>
<svg
   xmlns:dc="http://purl.org/dc/elements/1.1/"
   xmlns:cc="http://creativecommons.org/ns#"
   xmlns:rdf="http://www.w3.org/1999/02/22-rdf-syntax-ns#"
   xmlns:svg="http://www.w3.org/2000/svg"
   xmlns="http://www.w3.org/2000/svg"
   xmlns:xlink="http://www.w3.org/1999/xlink"
   width="210mm"
   height="297mm"
   viewBox="0 0 210 297"
   version="1.1"
   id="svg4581">
  <defs
     id="defs4575">
    <linearGradient
       id="linearGradient864">
      <stop
         style="stop-color:#c41e14;stop-opacity:1"
         offset="0"
         id="stop860" />
      <stop
         style="stop-color:#ff7d7d;stop-opacity:1"
         offset="1"
         id="stop862" />
    </linearGradient>
    <linearGradient
       id="linearGradient5521">
      <stop
         style="stop-color:#c4bbbb;stop-opacity:1;"
         offset="0"
         id="stop5517" />
      <stop
         style="stop-color:#c4bbbb;stop-opacity:0;"
         offset="1"
         id="stop5519" />
    </linearGradient>
    <filter
       style="color-interpolation-filters:sRGB;"
       id="filter5465">
      <feGaussianBlur
         stdDeviation="5"
         result="fbSourceGraphic"
         id="feGaussianBlur5457" />
      <feGaussianBlur
         stdDeviation="0.01"
         in="SourceGraphic"
         result="result1"
         id="feGaussianBlur5459" />
      <feComposite
         in2="result1"
         operator="arithmetic"
         in="fbSourceGraphic"
         k2="0.5"
         k3="0.5"
         result="result2"
         id="feComposite5461" />
      <feBlend
         in2="fbSourceGraphic"
         mode="normal"
         result="fbSourceGraphic"
         id="feBlend5463" />
      <feColorMatrix
         result="fbSourceGraphicAlpha"
         in="fbSourceGraphic"
         values="0 0 0 -1 0 0 0 0 -1 0 0 0 0 -1 0 0 0 0 1 0"
         id="feColorMatrix5467" />
      <feColorMatrix
         id="feColorMatrix5469"
         in="fbSourceGraphic"
         values="1 0 0 0 0 0 1 0 0 0 0 0 1 0 0 -0.2125 -0.7154 -0.0721 1 0 "
         result="colormatrix" />
      <feComposite
         in2="colormatrix"
         id="feComposite5471"
         in="fbSourceGraphic"
         operator="arithmetic"
         k2="1"
         k3="0"
         k4="0"
         result="composite" />
      <feGaussianBlur
         id="feGaussianBlur5473"
         stdDeviation="5 0.01"
         result="blur1" />
      <feGaussianBlur
         id="feGaussianBlur5475"
         in="composite"
         stdDeviation="0.01 5"
         result="blur2" />
      <feBlend
         in2="blur1"
         id="feBlend5477"
         in="blur2"
         mode="darken"
         result="blend" />
    </filter>
    <radialGradient
       xlink:href="#linearGradient5521"
       id="radialGradient5523"
       cx="309.83907"
       cy="72.717982"
       fx="309.83907"
       fy="72.717982"
       r="92.895088"
       gradientTransform="matrix(1,0,0,0.48052488,0,37.775182)"
       gradientUnits="userSpaceOnUse" />
    <linearGradient
       xlink:href="#linearGradient864"
       id="linearGradient866"
       x1="75.348686"
       y1="165.85648"
       x2="231.03262"
       y2="141.43538"
       gradientUnits="userSpaceOnUse"
       gradientTransform="translate(-0.26726953,0.26726953)"
       spreadMethod="pad" />
  </defs>
  <metadata
     id="metadata4578">
    <rdf:RDF>
      <cc:Work
         rdf:about="">
        <dc:format>image/svg+xml</dc:format>
        <dc:type
           rdf:resource="http://purl.org/dc/dcmitype/StillImage" />
        <dc:title></dc:title>
      </cc:Work>
    </rdf:RDF>
  </metadata>
  <g
     id="layer2">
    <g
       id="layer1-4"
       transform="matrix(1.7997751,0,0,1.8008173,-69.458837,-100.99619)"
       style="fill:#3d241c;fill-opacity:1">
      <circle
         r="41.539581"
         cy="138.77916"
         cx="98.160416"
         id="path4548"
         style="opacity:1;fill:#3d241c;fill-opacity:1;stroke:#000000;stroke-width:0.26458332;stroke-opacity:1" />
      <ellipse
         ry="38.928066"
         rx="39.302242"
         cy="138.91145"
         cx="98.160416"
         id="path4548-4"
         style="opacity:1;fill:#3d241c;fill-opacity:1;stroke:none;stroke-width:0.24913824;stroke-opacity:1" />
    </g>
  </g>
  <g
     id="layer6">
    <g
       id="layer1-4-9"
       transform="matrix(1.6991348,0,0,1.7051684,-59.621347,-87.842387)"
       style="fill:#f2ded0;fill-opacity:1">
      <circle
         r="41.539581"
         cy="138.77916"
         cx="98.160416"
         id="path4548-42"
         style="opacity:1;fill:#f2ded0;fill-opacity:1;stroke:#000000;stroke-width:0.26458332;stroke-opacity:1" />
      <ellipse
         ry="38.928066"
         rx="39.302242"
         cy="138.91145"
         cx="98.160416"
         id="path4548-4-0"
         style="opacity:1;fill:#f2ded0;fill-opacity:1;stroke:none;stroke-width:0.24913824;stroke-opacity:1" />
    </g>
  </g>
  <g
     id="layer3">
    <path
       style="opacity:1;fill:#c41e14;fill-opacity:1;stroke:#000000;stroke-width:0.23878944;stroke-opacity:1"
       d="m 40.26917,117.44918 a 27.672492,31.411407 0 0 0 -27.672436,31.411 27.672492,31.411407 0 0 0 27.672436,31.41151 27.672492,31.411407 0 0 0 27.672427,-31.41151 27.672492,31.411407 0 0 0 -27.672427,-31.411 z m -0.58167,4.92579 a 20.311667,25.483997 0 0 1 2.02757,0.12713 20.311667,25.483997 0 0 1 2.00772,0.38085 20.311667,25.483997 0 0 1 1.967084,0.63045 20.311667,25.483997 0 0 1 1.907075,0.87334 20.311667,25.483997 0 0 1 1.828163,1.10794 20.311667,25.483997 0 0 1 1.731298,1.33118 20.311667,25.483997 0 0 1 1.616003,1.54203 20.311667,25.483997 0 0 1 1.485592,1.73632 20.311667,25.483997 0 0 1 1.340056,1.91359 20.311667,25.483997 0 0 1 1.180817,2.07222 20.311667,25.483997 0 0 1 1.010239,2.20968 20.311667,25.483997 0 0 1 0.82974,2.32493 20.311667,25.483997 0 0 1 0.639785,2.41742 20.311667,25.483997 0 0 1 0.444638,2.48564 20.311667,25.483997 0 0 1 0.244763,2.52852 20.311667,25.483997 0 0 1 0.05103,1.80299 20.311667,25.483997 0 0 1 -0.101594,2.54404 20.311667,25.483997 0 0 1 -0.303354,2.5187 20.311667,25.483997 0 0 1 -0.502284,2.46807 20.311667,25.483997 0 0 1 -0.696018,2.39313 20.311667,25.483997 0 0 1 -0.883132,2.2934 20.311667,25.483997 0 0 1 -1.061271,2.17196 20.311667,25.483997 0 0 1 -1.229013,2.02779 20.311667,25.483997 0 0 1 -1.384001,1.86396 20.311667,25.483997 0 0 1 -1.52528,1.68104 20.311667,25.483997 0 0 1 -1.651446,1.48156 20.311667,25.483997 0 0 1 -1.761064,1.26762 20.311667,25.483997 0 0 1 -1.853208,1.04077 20.311667,25.483997 0 0 1 -1.926917,0.80305 20.311667,25.483997 0 0 1 -1.980791,0.55811 20.311667,25.483997 0 0 1 -2.015756,0.30695 20.311667,25.483997 0 0 1 -1.436446,0.0636 20.311667,25.483997 0 0 1 -2.028037,-0.12713 20.311667,25.483997 0 0 1 -2.007253,-0.38085 20.311667,25.483997 0 0 1 -1.967551,-0.62994 20.311667,25.483997 0 0 1 -1.907083,-0.87385 20.311667,25.483997 0 0 1 -1.828164,-1.10794 20.311667,25.483997 0 0 1 -1.730819,-1.33119 20.311667,25.483997 0 0 1 -1.616486,-1.54202 20.311667,25.483997 0 0 1 -1.485584,-1.73633 20.311667,25.483997 0 0 1 -1.340062,-1.91358 20.311667,25.483997 0 0 1 -1.180814,-2.07222 20.311667,25.483997 0 0 1 -1.010237,-2.20969 20.311667,25.483997 0 0 1 -0.829265,-2.32492 20.311667,25.483997 0 0 1 -0.640263,-2.41742 20.311667,25.483997 0 0 1 -0.444633,-2.48563 20.311667,25.483997 0 0 1 -0.244769,-2.52853 20.311667,25.483997 0 0 1 -0.05057,-1.80248 20.311667,25.483997 0 0 1 0.101112,-2.54454 20.311667,25.483997 0 0 1 0.303362,-2.51871 20.311667,25.483997 0 0 1 0.502284,-2.46807 20.311667,25.483997 0 0 1 0.696488,-2.39262 20.311667,25.483997 0 0 1 0.883131,-2.29391 20.311667,25.483997 0 0 1 1.061277,-2.17197 20.311667,25.483997 0 0 1 1.228536,-2.02778 20.311667,25.483997 0 0 1 1.384006,-1.86397 20.311667,25.483997 0 0 1 1.525277,-1.68103 20.311667,25.483997 0 0 1 1.651443,-1.48157 20.311667,25.483997 0 0 1 1.761066,-1.26762 20.311667,25.483997 0 0 1 1.853209,-1.04076 20.311667,25.483997 0 0 1 1.926925,-0.80305 20.311667,25.483997 0 0 1 1.980782,-0.55759 20.311667,25.483997 0 0 1 2.015757,-0.30696 20.311667,25.483997 0 0 1 1.436921,-0.0641 z"
       id="path5176" />
  </g>
  <g
     id="layer5" />
  <g
     id="layer1">
    <path
       style="fill:url(#linearGradient866);fill-opacity:1;stroke:#000000;stroke-width:0.24242952px;stroke-linecap:butt;stroke-linejoin:miter;stroke-opacity:1;fill-rule:nonzero;opacity:1"
       d="m 31.174917,113.13767 c 48.469468,21.31126 94.309553,23.82922 153.766153,0.24415 0,53.78407 -27.86601,90.09173 -76.63744,90.09173 -49.86413,0 -77.128713,-36.92397 -77.128713,-90.33588 z"
       id="path4585" />
    <ellipse
       style="opacity:1;fill:#dedbe6;fill-opacity:0.98994978;stroke:#000000;stroke-width:0.24772969;stroke-opacity:1"
       id="path5133"
       cx="108.44866"
       cy="113.98267"
       rx="77.252289"
       ry="15.919404" />
    <circle
       style="opacity:1;fill:#c41e14;fill-opacity:1;stroke:#000000;stroke-width:0.26458332;stroke-opacity:1"
       id="path5176-8"
       cx="17.736391"
       cy="147.7682"
       r="0" />
  </g>
  <g
     id="layer4">
    <ellipse
       ry="12.093809"
       rx="72.291176"
       cy="115.34016"
       cx="107.93017"
       id="ellipse5138"
       style="opacity:1;fill:#51382a;fill-opacity:1;stroke:none;stroke-width:0.20887342;stroke-opacity:1" />
  </g>
  <g
     transform="translate(-0.31461865,-0.31461865)"
     id="layer7">
    <flowRoot
       xml:space="preserve"
       id="flowRoot5327"
       style="font-style:normal;font-weight:normal;font-size:40px;line-height:1.25;font-family:sans-serif;letter-spacing:0px;word-spacing:0px;fill:#000000;fill-opacity:1;stroke:none"><flowRegion
         id="flowRegion5329"><rect
           id="rect5331"
           width="250"
           height="110"
           x="300"
           y="582.51971" /></flowRegion><flowPara
         id="flowPara5333" /></flowRoot>    <text
       xml:space="preserve"
       style="font-style:normal;font-weight:normal;font-size:10.58333302px;line-height:1.25;font-family:sans-serif;letter-spacing:0px;word-spacing:0px;fill:#000000;fill-opacity:1;stroke:none;stroke-width:0.26458332"
       x="103.1875"
       y="167.35417"
       id="text5337"><tspan
         id="tspan5335"
         x="103.1875"
         y="176.71794"
         style="stroke-width:0.26458332" /></text>
    <path
       style="fill:url(#radialGradient5523);fill-opacity:1;stroke:none;stroke-width:0.26458332px;stroke-linecap:butt;stroke-linejoin:miter;stroke-opacity:1;filter:url(#filter5465)"
       d="m 263.52775,103.22959 c 0,0 10.15624,3.4745 17.90705,1.33635 7.75084,-2.13816 14.96711,-0.80181 23.51974,1.60362 8.5526,2.40542 16.57069,3.4745 22.18335,3.74177 5.61266,0.26727 10.95807,-9.6217 16.30344,-11.492591 5.34541,-1.870885 13.89804,-0.267269 25.12335,-2.138156 11.22532,-1.870885 20.31249,-6.1472 18.44159,-10.95805 -1.87089,-4.810852 -9.08716,-8.285355 -14.9671,-12.561667 -5.87992,-4.276313 -14.6998,-5.879931 -4.27631,-12.561668 10.42353,-6.681737 9.88897,-30.735995 -3.4745,-23.252448 -13.36347,7.483546 -13.89801,2.939965 -16.30344,14.165283 -2.40544,11.225321 -3.47451,18.17433 -5.34538,21.916101 -1.8709,3.741775 -2.40543,8.018087 -6.94902,9.354434 -4.54358,1.336347 -9.88896,2.138156 -13.898,-1.870887 -4.00905,-4.009041 -5.87994,-7.750815 -12.82896,-9.621703 -6.94899,-1.870887 -16.5707,-1.870887 -24.05425,0.534541 -7.48355,2.405425 -4.54358,2.138156 -14.43255,6.414468 -9.88897,4.276312 -16.30344,5.612659 -22.18337,9.354434 -5.87993,3.741771 -8.8199,3.741771 -11.49259,9.354433 -2.6727,5.612656 -7.75082,8.018086 -1.06908,10.423516 6.68174,2.40542 7.75082,3.74177 12.56167,2.13815 4.81085,-1.60362 6.1472,-2.13815 8.01808,-3.20723 1.87089,-1.06908 7.21628,-2.6727 7.21628,-2.6727 z"
       id="path5373"
       transform="matrix(0.8616344,-0.13068838,0.13068838,0.8616344,-158.30814,61.960468)" />
    <g
       id="text87"
       style="font-style:normal;font-variant:normal;font-weight:normal;font-stretch:normal;font-size:49.77158356px;line-height:1.25;font-family:'Marck Script';-inkscape-font-specification:'Marck Script';letter-spacing:0px;word-spacing:0px;fill:#000000;fill-opacity:1;stroke:#dca269;stroke-width:1.24428952;stroke-opacity:1"
       transform="rotate(6.7800363)"
       aria-label="K">
      <path
         id="path56"
         style="font-style:normal;font-variant:normal;font-weight:normal;font-stretch:normal;font-family:'Marck Script';-inkscape-font-specification:'Marck Script';stroke-width:1.24428952"
         d="m 122.80964,126.15875 3.13561,1.54292 q -3.18538,5.17624 -7.56528,9.20774 -4.33012,4.0315 -11.547,8.01322 1.3936,7.21688 3.43423,11.54701 2.04064,4.3799 5.32556,4.87762 v 2.28949 q -0.39817,0.0498 -1.0452,0.0498 -3.33469,0 -6.4703,-4.62876 -3.08584,-4.62875 -5.57442,-13.68718 -2.14018,6.71916 -6.520079,10.65112 -4.3799,3.88218 -9.1082,3.88218 -2.438808,0 -4.031499,-1.34383 -1.542919,-1.29406 -1.542919,-3.58356 0,-2.33926 2.090407,-4.82784 2.090406,-2.48858 5.723732,-4.18081 l 1.144746,1.79178 q -4.479442,3.18538 -4.479442,5.97259 0,1.34383 0.895888,2.18994 0.895889,0.79635 2.339265,0.79635 3.384467,0 5.823275,-2.83698 2.488579,-2.88675 4.429671,-10.05386 2.438805,-9.00866 4.977155,-11.79587 1.14475,-1.29406 3.3347,-2.83698 -3.43424,0.0996 -7.01779,1.19452 -3.583558,1.04521 -6.271223,3.18538 -2.687666,2.09041 -2.687666,4.67853 0,3.3347 3.036067,5.32556 l -0.995432,1.54292 q -2.787209,-1.34383 -4.379899,-3.48401 -1.592691,-2.14018 -1.592691,-4.42967 0,-3.13561 3.434239,-5.92282 3.43424,-2.78721 8.411398,-4.33013 5.026927,-1.54292 9.854777,-1.54292 2.98629,0 2.98629,1.29407 0,0.84611 -1.742,2.14017 -3.18539,2.38904 -4.92739,6.22145 -1.69223,3.83241 -2.78721,8.95889 5.67396,-2.09041 10.85021,-6.91825 5.22601,-4.87762 9.05842,-10.94975 z" />
    </g>
    <g
       id="text93"
       style="font-style:normal;font-variant:normal;font-weight:normal;font-stretch:normal;font-size:53.55180359px;line-height:1.25;font-family:'Marck Script';-inkscape-font-specification:'Marck Script';letter-spacing:0px;word-spacing:0px;fill:#000000;fill-opacity:1;stroke:#dca269;stroke-width:1.33879507;stroke-opacity:1"
       transform="rotate(-30.925791)"
       aria-label="K">
      <path
         id="path59"
         style="font-style:normal;font-variant:normal;font-weight:normal;font-stretch:normal;font-family:'Marck Script';-inkscape-font-specification:'Marck Script';stroke-width:1.33879507"
         d="m 50.517651,184.93481 3.373764,1.6601 q -3.427316,5.56939 -8.139874,9.90708 -4.659007,4.3377 -12.424019,8.62185 1.499451,7.76501 3.695075,12.42401 2.195624,4.71256 5.730043,5.24808 v 2.46338 q -0.428415,0.0536 -1.124588,0.0536 -3.587971,0 -6.961735,-4.98032 -3.320212,-4.98032 -5.997802,-14.72675 -2.302727,7.22949 -7.015286,11.46009 -4.712559,4.17704 -9.79998,4.17704 -2.6240384,0 -4.3376961,-1.4459 -1.660106,-1.39235 -1.660106,-3.85573 0,-2.51694 2.2491758,-5.19453 2.2491753,-2.67759 6.1584573,-4.49835 l 1.231692,1.92787 q -4.819663,3.42731 -4.819663,6.42621 0,1.4459 0.963933,2.35628 0.963932,0.85683 2.516935,0.85683 3.641522,0 6.265561,-3.05245 2.67759,-3.106 4.76611,-10.81746 2.624038,-9.69288 5.35518,-12.69178 1.231692,-1.39235 3.587971,-3.05245 -3.695074,0.1071 -7.550804,1.28524 -3.85573,1.12459 -6.747527,3.42731 -2.891798,2.24918 -2.891798,5.03387 0,3.58797 3.26666,5.73005 l -1.071036,1.6601 q -2.998901,-1.4459 -4.712558,-3.74862 -1.713658,-2.30273 -1.713658,-4.76611 0,-3.37377 3.695074,-6.37267 3.695075,-2.9989 9.050255,-4.65901 5.408732,-1.6601 10.603257,-1.6601 3.213108,0 3.213108,1.39235 0,0.91038 -1.874313,2.30272 -3.427315,2.57049 -5.301628,6.69398 -1.820762,4.12349 -2.998901,9.63932 6.104905,-2.24917 11.674293,-7.4437 5.622939,-5.24807 9.746428,-11.78139 z" />
    </g>
  </g>
</svg>
