<?xml version="1.0" encoding="UTF-8" standalone="no"?>
<!-- Created with Inkscape (http://www.inkscape.org/) -->

<svg
   xmlns:osb="http://www.openswatchbook.org/uri/2009/osb"
   xmlns:dc="http://purl.org/dc/elements/1.1/"
   xmlns:cc="http://creativecommons.org/ns#"
   xmlns:rdf="http://www.w3.org/1999/02/22-rdf-syntax-ns#"
   xmlns:svg="http://www.w3.org/2000/svg"
   xmlns="http://www.w3.org/2000/svg"
   xmlns:xlink="http://www.w3.org/1999/xlink"
   xmlns:sodipodi="http://sodipodi.sourceforge.net/DTD/sodipodi-0.dtd"
   xmlns:inkscape="http://www.inkscape.org/namespaces/inkscape"
   width="205.86525mm"
   height="191.81071mm"
   viewBox="0 0 205.86525 191.81071"
   version="1.1"
   id="svg4581"
   sodipodi:docname="logo_svg_v3_inkscape.svg"
   inkscape:version="0.92.4 (5da689c313, 2019-01-14)"
   inkscape:export-filename="C:\Users\DieZe\OneDrive\Pulpit\Wia\logo_png_v2.png"
   inkscape:export-xdpi="96"
   inkscape:export-ydpi="96">
  <defs
     id="defs4575">
    <linearGradient
       id="linearGradient900"
       osb:paint="solid">
      <stop
         style="stop-color:#df9d63;stop-opacity:1;"
         offset="0"
         id="stop898" />
    </linearGradient>
    <linearGradient
       inkscape:collect="always"
       id="linearGradient866">
      <stop
         style="stop-color:#a32323;stop-opacity:1"
         offset="0"
         id="stop862" />
      <stop
         style="stop-color:#d94c4c;stop-opacity:1"
         offset="1"
         id="stop864" />
    </linearGradient>
    <filter
       inkscape:label="Cross Blur"
       inkscape:menu="Blurs"
       inkscape:menu-tooltip="Overlays two copies with different blur amounts and modifiable blend and composite"
       style="color-interpolation-filters:sRGB"
       id="filter5465">
      <feGaussianBlur
         stdDeviation="5"
         result="fbSourceGraphic"
         id="feGaussianBlur5457" />
      <feGaussianBlur
         stdDeviation="0.01"
         in="SourceGraphic"
         result="result1"
         id="feGaussianBlur5459" />
      <feComposite
         in2="result1"
         operator="arithmetic"
         in="fbSourceGraphic"
         k2="0.5"
         k3="0.5"
         result="result2"
         id="feComposite5461"
         k1="0"
         k4="0" />
      <feBlend
         in2="fbSourceGraphic"
         mode="normal"
         result="fbSourceGraphic"
         id="feBlend5463" />
      <feColorMatrix
         result="fbSourceGraphicAlpha"
         in="fbSourceGraphic"
         values="0 0 0 -1 0 0 0 0 -1 0 0 0 0 -1 0 0 0 0 1 0"
         id="feColorMatrix5467" />
      <feColorMatrix
         id="feColorMatrix5469"
         in="fbSourceGraphic"
         values="1 0 0 0 0 0 1 0 0 0 0 0 1 0 0 -0.2125 -0.7154 -0.0721 1 0 "
         result="colormatrix" />
      <feComposite
         in2="colormatrix"
         id="feComposite5471"
         in="fbSourceGraphic"
         operator="arithmetic"
         k2="1"
         k3="0"
         k4="0"
         result="composite"
         k1="0" />
      <feGaussianBlur
         id="feGaussianBlur5473"
         stdDeviation="5 0.01"
         result="blur1" />
      <feGaussianBlur
         id="feGaussianBlur5475"
         in="composite"
         stdDeviation="0.01 5"
         result="blur2" />
      <feBlend
         in2="blur1"
         id="feBlend5477"
         in="blur2"
         mode="darken"
         result="blend" />
    </filter>
    <linearGradient
       inkscape:collect="always"
       xlink:href="#linearGradient866"
       id="linearGradient874"
       gradientUnits="userSpaceOnUse"
       x1="58.582462"
       y1="162.54968"
       x2="176.77693"
       y2="139.83176" />
    <filter
       inkscape:label="Apparition"
       inkscape:menu="Blurs"
       inkscape:menu-tooltip="Edges are partly feathered out"
       style="color-interpolation-filters:sRGB"
       id="filter2729">
      <feMorphology
         radius="4"
         in="SourceGraphic"
         result="result0"
         id="feMorphology2723" />
      <feGaussianBlur
         in="result0"
         stdDeviation="8"
         result="result91"
         id="feGaussianBlur2725" />
      <feComposite
         operator="in"
         in="SourceGraphic"
         in2="result91"
         id="feComposite2727" />
    </filter>
    <filter
       inkscape:label="Cross Blur"
       inkscape:menu="Blurs"
       inkscape:menu-tooltip="Edges are partly feathered out"
       style="color-interpolation-filters:sRGB"
       id="filter2757">
      <feMorphology
         radius="4"
         in="SourceGraphic"
         result="result0"
         id="feMorphology2751" />
      <feGaussianBlur
         in="result0"
         stdDeviation="8"
         result="result91"
         id="feGaussianBlur2753" />
      <feComposite
         operator="in"
         in="SourceGraphic"
         in2="result91"
         id="feComposite2755"
         result="fbSourceGraphic" />
      <feColorMatrix
         result="fbSourceGraphicAlpha"
         in="fbSourceGraphic"
         values="0 0 0 -1 0 0 0 0 -1 0 0 0 0 -1 0 0 0 0 1 0"
         id="feColorMatrix2805" />
      <feColorMatrix
         id="feColorMatrix2807"
         in="fbSourceGraphic"
         values="1 0 0 0 0 0 1 0 0 0 0 0 1 0 0 -0.2125 -0.7154 -0.0721 1 0 "
         result="colormatrix" />
      <feComposite
         in2="colormatrix"
         id="feComposite2809"
         in="fbSourceGraphic"
         operator="arithmetic"
         k2="1"
         k3="0"
         k4="0"
         result="composite"
         k1="0" />
      <feGaussianBlur
         id="feGaussianBlur2811"
         stdDeviation="5 0.01"
         result="blur1" />
      <feGaussianBlur
         id="feGaussianBlur2813"
         in="composite"
         stdDeviation="0.01 5"
         result="blur2" />
      <feBlend
         in2="blur1"
         id="feBlend2815"
         in="blur2"
         mode="darken"
         result="blend" />
    </filter>
  </defs>
  <sodipodi:namedview
     id="base"
     pagecolor="#ffffff"
     bordercolor="#666666"
     borderopacity="1.0"
     inkscape:pageopacity="0.0"
     inkscape:pageshadow="2"
     inkscape:zoom="0.7"
     inkscape:cx="234.62543"
     inkscape:cy="377.1972"
     inkscape:document-units="mm"
     inkscape:current-layer="layer7"
     showgrid="false"
     inkscape:window-width="1920"
     inkscape:window-height="1017"
     inkscape:window-x="-8"
     inkscape:window-y="-8"
     inkscape:window-maximized="1"
     fit-margin-top="0"
     fit-margin-left="0"
     fit-margin-right="0"
     fit-margin-bottom="0">
    <inkscape:grid
       type="xygrid"
       id="grid5162"
       originx="-12.47734"
       originy="-73.03685" />
  </sodipodi:namedview>
  <metadata
     id="metadata4578">
    <rdf:RDF>
      <cc:Work
         rdf:about="">
        <dc:format>image/svg+xml</dc:format>
        <dc:type
           rdf:resource="http://purl.org/dc/dcmitype/StillImage" />
        <dc:title></dc:title>
      </cc:Work>
    </rdf:RDF>
  </metadata>
  <g
     inkscape:groupmode="layer"
     id="layer2"
     inkscape:label="background 2"
     transform="translate(-12.477339,-32.152429)">
    <g
       id="layer1-4"
       inkscape:label="Layer 1"
       transform="matrix(1.7997751,0,0,1.8008173,-69.458837,-100.99619)"
       style="fill:#3d241c;fill-opacity:1">
      <circle
         r="41.539581"
         cy="138.77916"
         cx="98.160416"
         id="path4548"
         style="opacity:1;fill:#3d241c;fill-opacity:1;stroke:#000000;stroke-width:0.26458332;stroke-opacity:1" />
      <ellipse
         ry="38.928066"
         rx="39.302242"
         cy="138.91145"
         cx="98.160416"
         id="path4548-4"
         style="opacity:1;fill:#3d241c;fill-opacity:1;stroke:none;stroke-width:0.24913824;stroke-opacity:1" />
    </g>
  </g>
  <g
     inkscape:groupmode="layer"
     id="layer6"
     inkscape:label="background"
     transform="translate(-12.477339,-32.152429)">
    <g
       id="layer1-4-9"
       inkscape:label="Layer 1"
       transform="matrix(1.6991348,0,0,1.7051684,-59.621347,-87.842387)"
       style="fill:#d8c1ab;fill-opacity:1">
      <circle
         r="41.539581"
         cy="138.77916"
         cx="98.160416"
         id="path4548-42"
         style="opacity:1;fill:#d8c1ab;fill-opacity:1;stroke:#000000;stroke-width:0.26458332;stroke-opacity:1" />
      <ellipse
         ry="38.928066"
         rx="39.302242"
         cy="138.91145"
         cx="98.160416"
         id="path4548-4-0"
         style="opacity:1;fill:#d8c1ab;fill-opacity:1;stroke:none;stroke-width:0.24913824;stroke-opacity:1" />
    </g>
  </g>
  <g
     inkscape:groupmode="layer"
     id="layer3"
     inkscape:label="handle"
     transform="translate(-12.477339,-32.152429)">
    <path
       style="opacity:1;fill:#a32323;fill-opacity:1;stroke:#000000;stroke-width:0.23878944;stroke-opacity:1"
       d="m 40.26917,117.44918 a 27.672492,31.411407 0 0 0 -27.672436,31.411 27.672492,31.411407 0 0 0 27.672436,31.41151 27.672492,31.411407 0 0 0 27.672427,-31.41151 27.672492,31.411407 0 0 0 -27.672427,-31.411 z m -0.58167,4.92579 a 20.311667,25.483997 0 0 1 2.02757,0.12713 20.311667,25.483997 0 0 1 2.00772,0.38085 20.311667,25.483997 0 0 1 1.967084,0.63045 20.311667,25.483997 0 0 1 1.907075,0.87334 20.311667,25.483997 0 0 1 1.828163,1.10794 20.311667,25.483997 0 0 1 1.731298,1.33118 20.311667,25.483997 0 0 1 1.616003,1.54203 20.311667,25.483997 0 0 1 1.485592,1.73632 20.311667,25.483997 0 0 1 1.340056,1.91359 20.311667,25.483997 0 0 1 1.180817,2.07222 20.311667,25.483997 0 0 1 1.010239,2.20968 20.311667,25.483997 0 0 1 0.82974,2.32493 20.311667,25.483997 0 0 1 0.639785,2.41742 20.311667,25.483997 0 0 1 0.444638,2.48564 20.311667,25.483997 0 0 1 0.244763,2.52852 20.311667,25.483997 0 0 1 0.05103,1.80299 20.311667,25.483997 0 0 1 -0.101594,2.54404 20.311667,25.483997 0 0 1 -0.303354,2.5187 20.311667,25.483997 0 0 1 -0.502284,2.46807 20.311667,25.483997 0 0 1 -0.696018,2.39313 20.311667,25.483997 0 0 1 -0.883132,2.2934 20.311667,25.483997 0 0 1 -1.061271,2.17196 20.311667,25.483997 0 0 1 -1.229013,2.02779 20.311667,25.483997 0 0 1 -1.384001,1.86396 20.311667,25.483997 0 0 1 -1.52528,1.68104 20.311667,25.483997 0 0 1 -1.651446,1.48156 20.311667,25.483997 0 0 1 -1.761064,1.26762 20.311667,25.483997 0 0 1 -1.853208,1.04077 20.311667,25.483997 0 0 1 -1.926917,0.80305 20.311667,25.483997 0 0 1 -1.980791,0.55811 20.311667,25.483997 0 0 1 -2.015756,0.30695 20.311667,25.483997 0 0 1 -1.436446,0.0636 20.311667,25.483997 0 0 1 -2.028037,-0.12713 20.311667,25.483997 0 0 1 -2.007253,-0.38085 20.311667,25.483997 0 0 1 -1.967551,-0.62994 20.311667,25.483997 0 0 1 -1.907083,-0.87385 20.311667,25.483997 0 0 1 -1.828164,-1.10794 20.311667,25.483997 0 0 1 -1.730819,-1.33119 20.311667,25.483997 0 0 1 -1.616486,-1.54202 20.311667,25.483997 0 0 1 -1.485584,-1.73633 20.311667,25.483997 0 0 1 -1.340062,-1.91358 20.311667,25.483997 0 0 1 -1.180814,-2.07222 20.311667,25.483997 0 0 1 -1.010237,-2.20969 20.311667,25.483997 0 0 1 -0.829265,-2.32492 20.311667,25.483997 0 0 1 -0.640263,-2.41742 20.311667,25.483997 0 0 1 -0.444633,-2.48563 20.311667,25.483997 0 0 1 -0.244769,-2.52853 20.311667,25.483997 0 0 1 -0.05057,-1.80248 20.311667,25.483997 0 0 1 0.101112,-2.54454 20.311667,25.483997 0 0 1 0.303362,-2.51871 20.311667,25.483997 0 0 1 0.502284,-2.46807 20.311667,25.483997 0 0 1 0.696488,-2.39262 20.311667,25.483997 0 0 1 0.883131,-2.29391 20.311667,25.483997 0 0 1 1.061277,-2.17197 20.311667,25.483997 0 0 1 1.228536,-2.02778 20.311667,25.483997 0 0 1 1.384006,-1.86397 20.311667,25.483997 0 0 1 1.525277,-1.68103 20.311667,25.483997 0 0 1 1.651443,-1.48157 20.311667,25.483997 0 0 1 1.761066,-1.26762 20.311667,25.483997 0 0 1 1.853209,-1.04076 20.311667,25.483997 0 0 1 1.926925,-0.80305 20.311667,25.483997 0 0 1 1.980782,-0.55759 20.311667,25.483997 0 0 1 2.015757,-0.30696 20.311667,25.483997 0 0 1 1.436921,-0.0641 z"
       id="path5176"
       inkscape:connector-curvature="0" />
  </g>
  <g
     inkscape:groupmode="layer"
     id="layer5"
     inkscape:label="space"
     transform="translate(-12.477339,-32.152429)" />
  <g
     inkscape:label="CUP"
     inkscape:groupmode="layer"
     id="layer1"
     transform="translate(-12.477339,-32.152429)">
    <path
       style="opacity:1;fill:url(#linearGradient874);fill-opacity:1;fill-rule:nonzero;stroke:#000000;stroke-width:0.24242952px;stroke-linecap:butt;stroke-linejoin:miter;stroke-opacity:1"
       d="m 31.174917,113.13767 c 48.469468,21.31126 94.309553,23.82922 153.766153,0.24415 0,53.78407 -27.86601,90.09173 -76.63744,90.09173 -49.86413,0 -77.128713,-36.92397 -77.128713,-90.33588 z"
       id="path4585"
       inkscape:connector-curvature="0"
       sodipodi:nodetypes="cccc" />
    <ellipse
       style="opacity:1;fill:#f2f4f3;fill-opacity:1;stroke:#000000;stroke-width:0.24772969;stroke-opacity:1"
       id="path5133"
       cx="108.44866"
       cy="113.98267"
       rx="77.252289"
       ry="15.919404" />
    <circle
       style="opacity:1;fill:#c41e14;fill-opacity:1;stroke:#000000;stroke-width:0.26458332;stroke-opacity:1"
       id="path5176-8"
       cx="17.736391"
       cy="147.7682"
       r="0" />
  </g>
  <g
     inkscape:groupmode="layer"
     id="layer4"
     inkscape:label="coffee"
     transform="translate(-12.477339,-32.152429)">
    <ellipse
       ry="12.093809"
       rx="72.291176"
       cy="115.34016"
       cx="107.93017"
       id="ellipse5138"
       style="opacity:1;fill:#5e4c3f;fill-opacity:1;stroke:none;stroke-width:0.20887342;stroke-opacity:1" />
  </g>
  <g
     inkscape:groupmode="layer"
     id="layer7"
     inkscape:label="steam"
     transform="translate(-12.477339,-32.152429)">
    <flowRoot
       xml:space="preserve"
       id="flowRoot5327"
       style="font-style:normal;font-weight:normal;font-size:40px;line-height:1.25;font-family:sans-serif;letter-spacing:0px;word-spacing:0px;fill:#000000;fill-opacity:1;stroke:none"><flowRegion
         id="flowRegion5329"><rect
           id="rect5331"
           width="250"
           height="110"
           x="300"
           y="582.51971" /></flowRegion><flowPara
         id="flowPara5333" /></flowRoot>    <text
       xml:space="preserve"
       style="font-style:normal;font-weight:normal;font-size:10.58333302px;line-height:1.25;font-family:sans-serif;letter-spacing:0px;word-spacing:0px;fill:#000000;fill-opacity:1;stroke:none;stroke-width:0.26458332"
       x="103.1875"
       y="167.35417"
       id="text5337"><tspan
         sodipodi:role="line"
         id="tspan5335"
         x="103.1875"
         y="176.71794"
         style="stroke-width:0.26458332" /></text>
    <g
       aria-label="K"
       transform="rotate(9.5123818)"
       style="font-style:normal;font-variant:normal;font-weight:normal;font-stretch:normal;font-size:49.77158356px;line-height:1.25;font-family:'Marck Script';-inkscape-font-specification:'Marck Script';letter-spacing:0px;word-spacing:0px;fill:#000000;fill-opacity:1;stroke:#dca269;stroke-width:1.24428952;stroke-opacity:1"
       id="text87">
      <path
         d="m 129.36388,119.24935 3.13561,1.54292 q -3.18538,5.17625 -7.56528,9.20775 -4.33013,4.03149 -11.54701,8.01322 1.39361,7.21688 3.43424,11.54701 2.04064,4.3799 5.32556,4.87761 v 2.2895 q -0.39817,0.0498 -1.0452,0.0498 -3.3347,0 -6.47031,-4.62876 -3.08584,-4.62876 -5.57441,-13.68718 -2.14018,6.71916 -6.52008,10.65111 -4.379901,3.88219 -9.108202,3.88219 -2.438808,0 -4.031498,-1.34383 -1.542919,-1.29407 -1.542919,-3.58356 0,-2.33926 2.090406,-4.82784 2.090407,-2.48858 5.723732,-4.18082 l 1.144747,1.79178 q -4.479443,3.18538 -4.479443,5.97259 0,1.34383 0.895889,2.18995 0.895888,0.79635 2.339264,0.79635 3.384468,0 5.823274,-2.83698 2.48858,-2.88676 4.42967,-10.05386 2.43881,-9.00866 4.97716,-11.79587 1.14475,-1.29406 3.3347,-2.83698 -3.43424,0.0995 -7.0178,1.19452 -3.58355,1.0452 -6.27122,3.18538 -2.687661,2.09041 -2.687661,4.67853 0,3.3347 3.036071,5.32556 l -0.99544,1.54292 q -2.787205,-1.34383 -4.379896,-3.48401 -1.592691,-2.14018 -1.592691,-4.42967 0,-3.13561 3.43424,-5.92282 3.434237,-2.78721 8.411397,-4.33013 5.02693,-1.54292 9.85477,-1.54292 2.9863,0 2.9863,1.29406 0,0.84612 -1.74201,2.14018 -3.18538,2.38904 -4.92738,6.22145 -1.69224,3.83241 -2.78721,8.95888 5.67396,-2.0904 10.8502,-6.91825 5.22602,-4.87761 9.05843,-10.94975 z"
         style="font-style:normal;font-variant:normal;font-weight:normal;font-stretch:normal;font-family:'Marck Script';-inkscape-font-specification:'Marck Script';stroke:#dca269;stroke-width:1.24428952;stroke-opacity:1"
         id="path2366"
         inkscape:connector-curvature="0" />
    </g>
    <g
       aria-label="K"
       transform="rotate(-30.068898)"
       style="font-style:normal;font-variant:normal;font-weight:normal;font-stretch:normal;font-size:53.55180359px;line-height:1.25;font-family:'Marck Script';-inkscape-font-specification:'Marck Script';letter-spacing:0px;word-spacing:0px;fill:#000000;fill-opacity:1;stroke:#dca269;stroke-width:1.33879507;stroke-opacity:1"
       id="text93">
      <path
         d="m 51.391562,184.20504 3.373763,1.6601 q -3.427315,5.56939 -8.139874,9.90709 -4.659007,4.33769 -12.424018,8.62184 1.49945,7.76501 3.695074,12.42402 2.195624,4.71256 5.730043,5.24807 v 2.46339 q -0.428414,0.0536 -1.124588,0.0536 -3.587971,0 -6.961734,-4.98032 -3.320212,-4.98032 -5.997802,-14.72675 -2.302728,7.2295 -7.015287,11.46009 -4.712558,4.17704 -9.79998,4.17704 -2.624038,0 -4.3376957,-1.4459 -1.6601059,-1.39234 -1.6601059,-3.85573 0,-2.51693 2.2491757,-5.19452 2.2491759,-2.67759 6.1584579,-4.49835 l 1.231691,1.92786 q -4.819662,3.42732 -4.819662,6.42622 0,1.4459 0.963932,2.35628 0.963933,0.85683 2.516935,0.85683 3.641523,0 6.265561,-3.05246 2.67759,-3.106 4.76611,-10.81746 2.624039,-9.69288 5.355181,-12.69178 1.231691,-1.39235 3.587971,-3.05245 -3.695075,0.1071 -7.550805,1.28524 -3.855729,1.12459 -6.747527,3.42732 -2.891797,2.24917 -2.891797,5.03387 0,3.58797 3.26666,5.73004 l -1.071036,1.66011 q -2.998901,-1.4459 -4.712559,-3.74863 -1.713658,-2.30273 -1.713658,-4.76611 0,-3.37376 3.695075,-6.37267 3.695074,-2.9989 9.050254,-4.659 5.408733,-1.66011 10.603258,-1.66011 3.213108,0 3.213108,1.39235 0,0.91038 -1.874313,2.30273 -3.427316,2.57048 -5.301629,6.69397 -1.820761,4.12349 -2.998901,9.63933 6.104906,-2.24918 11.674293,-7.4437 5.62294,-5.24808 9.746429,-11.7814 z"
         style="font-style:normal;font-variant:normal;font-weight:normal;font-stretch:normal;font-family:'Marck Script';-inkscape-font-specification:'Marck Script';stroke-width:1.33879507"
         id="path2369"
         inkscape:connector-curvature="0" />
    </g>
    <path
       style="fill:#baafaf;fill-opacity:1;stroke:none;stroke-width:0.36857885px;stroke-linecap:butt;stroke-linejoin:miter;stroke-opacity:1;filter:url(#filter2757)"
       d="m 60.552887,119.88585 h 4.01116 c 0,0 5.46976,-1.52061 7.29303,-2.66106 1.82326,-1.14045 5.10513,-2.28091 7.29303,-3.04122 2.18793,-0.7603 6.56374,-1.52058 6.56374,-1.52058 0,0 5.83444,-1.14047 7.29304,-1.14047 1.45861,0 6.19908,2.28092 6.19908,2.28092 l 6.928383,2.2809 4.74046,1.14045 12.03351,0.38015 c 0,0 2.9172,0.38015 5.10512,0 2.18791,-0.38015 6.92838,-1.5206 9.1163,-2.66106 2.18791,-1.14044 11.66885,-8.74349 11.66885,-8.74349 0,0 4.74048,-2.66105 7.65769,-3.0412 2.91721,-0.38015 11.3042,-1.90075 12.76281,-1.90075 1.45861,0 2.18791,0.7603 10.21025,0 8.02233,-0.76031 9.11629,0.38015 12.0335,-1.520607 2.91722,-1.90077 10.5749,-7.603014 10.93956,-9.123624 0.36465,-1.5206 1.4586,-1.5206 1.09395,-4.56181 -0.36465,-3.04122 -1.09395,-5.70227 -1.82326,-7.22287 -0.7293,-1.52061 -1.09396,-3.04122 -2.91721,-5.70228 -1.82326,-2.66105 -1.82326,-3.0412 -4.01117,-3.42135 -2.18791,-0.38015 -1.45861,0 -6.92838,-0.76031 -5.46978,-0.76031 -7.65769,-0.38015 -9.1163,-1.90076 -1.4586,-1.52061 -2.55256,0.7603 -2.55256,-4.18166 0,-4.94197 1.82326,-3.04122 0,-8.74348 -1.82326,-5.70227 -4.01117,-9.88394 -4.01117,-9.88394 0,0 0,-1.52061 -6.19908,-2.66106 -6.19907,-1.14045 -8.02233,-1.90075 -11.66885,-1.14045 -3.64652,0.76031 -4.37582,0.38016 -8.38699,3.04121 -4.01117,2.66107 -5.10513,3.42137 -5.46978,8.74348 -0.36466,5.32211 0.36465,8.36332 1.09395,13.30529 0.72931,4.94198 2.18792,10.64425 0.36466,12.54501 -1.82327,1.90075 -3.28186,3.8015 -8.75165,4.18165 -5.46977,0.38015 -5.10512,1.52062 -11.30419,-1.52061 -6.19907,-3.0412 -5.46977,-4.5618 -10.93956,-4.94196 -5.46977,-0.38015 -5.10512,-1.90076 -12.762803,0 -7.65767,1.90076 -11.3042,2.66107 -15.68002,5.32213 -4.37582,2.66106 -4.74047,2.28089 -10.57491,6.46257 -5.83442,4.18166 -9.84558,5.70227 -11.30419,7.60302 -1.45861,1.900747 -2.55257,5.322101 -4.37583,9.503761 -1.82325,4.18167 4.37583,15.20606 4.37583,15.20606 z"
       id="path2749"
       inkscape:connector-curvature="0" />
  </g>
</svg>
