<?xml version="1.0" encoding="UTF-8" standalone="no"?>
<svg
   xmlns:dc="http://purl.org/dc/elements/1.1/"
   xmlns:cc="http://creativecommons.org/ns#"
   xmlns:rdf="http://www.w3.org/1999/02/22-rdf-syntax-ns#"
   xmlns:svg="http://www.w3.org/2000/svg"
   xmlns="http://www.w3.org/2000/svg"
   id="svg8"
   version="1.1"
   viewBox="0 0 12.7 12.7"
   height="48"
   width="48">
  <defs
     id="defs2" />
  <metadata
     id="metadata5">
    <rdf:RDF>
      <cc:Work
         rdf:about="">
        <dc:format>image/svg+xml</dc:format>
        <dc:type
           rdf:resource="http://purl.org/dc/dcmitype/StillImage" />
        <dc:title></dc:title>
      </cc:Work>
    </rdf:RDF>
  </metadata>
  <g
     transform="translate(-243.93685,-415.49215)"
     id="layer1">
    <path
       id="path4529"
       d="m 249.35056,426.27992 c -2.18978,-0.0376 -3.60818,-0.13271 -4.07863,-0.27344 -0.24126,-0.0721 -0.47991,-0.21654 -0.66662,-0.40324 -0.27763,-0.27763 -0.40673,-0.56339 -0.49612,-1.09814 -0.17236,-1.03106 -0.22213,-2.82034 -0.11829,-4.25234 0.0438,-0.60371 0.1187,-1.15876 0.19628,-1.45414 0.13446,-0.51192 0.55763,-0.96257 1.05252,-1.12084 0.5445,-0.17414 2.40318,-0.27585 5.03835,-0.27571 1.69879,9e-5 2.92599,0.0385 3.96152,0.12428 0.69506,0.0575 1.07336,0.13046 1.3205,0.25462 0.31267,0.15709 0.60384,0.46741 0.73881,0.78737 0.32822,0.77826 0.44389,3.54451 0.22761,5.44382 -0.0996,0.87518 -0.22336,1.24403 -0.52569,1.56722 -0.21945,0.23461 -0.51335,0.39955 -0.83314,0.46758 -0.46641,0.0992 -1.41129,0.16712 -2.93243,0.21073 -0.56056,0.0161 -2.41249,0.0303 -2.88467,0.0222 z m 1.32866,-3.48441 c 0.90654,-0.52093 1.64342,-0.95177 1.63751,-0.95743 -0.0136,-0.013 -3.2577,-1.88516 -3.28452,-1.89551 -0.0156,-0.006 -0.0197,0.37961 -0.0197,1.89626 0,1.0471 0.004,1.90384 0.009,1.90384 0.005,0 0.75091,-0.42624 1.65747,-0.94716 z"
       style="fill:#ff0000;fill-opacity:1;stroke-width:0.0157203" />
  </g>
</svg>
