<?xml version="1.0" encoding="UTF-8" standalone="no"?>
<svg
   xmlns:dc="http://purl.org/dc/elements/1.1/"
   xmlns:cc="http://creativecommons.org/ns#"
   xmlns:rdf="http://www.w3.org/1999/02/22-rdf-syntax-ns#"
   xmlns:svg="http://www.w3.org/2000/svg"
   xmlns="http://www.w3.org/2000/svg"
   xmlns:sodipodi="http://sodipodi.sourceforge.net/DTD/sodipodi-0.dtd"
   xmlns:inkscape="http://www.inkscape.org/namespaces/inkscape"
   height="48"
   viewBox="0 -77 36.00015 36"
   width="48"
   version="1.1"
   id="svg6"
   sodipodi:docname="Youtube.svg"
   inkscape:version="0.92.4 (5da689c313, 2019-01-14)">
  <metadata
     id="metadata12">
    <rdf:RDF>
      <cc:Work
         rdf:about="">
        <dc:format>image/svg+xml</dc:format>
        <dc:type
           rdf:resource="http://purl.org/dc/dcmitype/StillImage" />
        <dc:title></dc:title>
      </cc:Work>
    </rdf:RDF>
  </metadata>
  <defs
     id="defs10" />
  <sodipodi:namedview
     pagecolor="#ffffff"
     bordercolor="#666666"
     borderopacity="1"
     objecttolerance="10"
     gridtolerance="10"
     guidetolerance="10"
     inkscape:pageopacity="0"
     inkscape:pageshadow="2"
     inkscape:window-width="1920"
     inkscape:window-height="1017"
     id="namedview8"
     showgrid="false"
     inkscape:zoom="3.9111844"
     inkscape:cx="48.855697"
     inkscape:cy="31.975718"
     inkscape:window-x="-8"
     inkscape:window-y="-8"
     inkscape:window-maximized="1"
     inkscape:current-layer="svg6"
     units="px" />
  <path
     d="m 35.258428,-71.366963 c -0.41501,-2.202641 -1.63092,-3.938862 -3.17285,-4.531992 -2.81718,-1.10112 -14.085859,-1.10112 -14.085859,-1.10112 0,0 -11.2683889,0 -14.0855692,1.05915 -1.5122699,0.59272 -2.7578399,2.371711 -3.1728499,4.573962 C 0,-67.343762 0,-59 0,-59 c 0,0 0,8.385722 0.7412999,12.366963 0.41528,2.202241 1.63092,3.938862 3.1731299,4.531982 2.8465503,1.10113 14.0855792,1.10113 14.0855792,1.10113 0,0 11.268389,0 14.085569,-1.05915 1.5422,-0.59274 2.75784,-2.329351 3.17312,-4.531602 0.7413,-4.023601 0.7413,-12.366963 0.7413,-12.366963 0,0 0.0297,-8.386122 -0.74157,-12.409323 z m 0,0"
     id="path2"
     inkscape:connector-curvature="0"
     style="fill:#ff0000;stroke-width:0.0840298" />
  <path
     d="m 13.314825,-51.291735 9.3705,-7.70826 -9.3705,-7.70827 z m 0,0"
     id="path4"
     inkscape:connector-curvature="0"
     style="fill:#ffffff;stroke-width:0.0840298" />
</svg>
